<svg xmlns="http://www.w3.org/2000/svg" width="24" height="18" viewBox="0 0 24 18"><path fill="#B5B5B5" d="M513.030306,1.5202281 C513.02374,1.50750435 513.012858,1.49753404 512.999609,1.49210303 C511.467869,0.789323331 509.851444,0.288186379 508.190785,0.00123338015 C508.159841,-0.00451958431 508.128694,0.0102193444 508.113522,0.037795968 C507.893415,0.43728803 507.693607,0.847632188 507.51486,1.26726321 C505.724761,0.995527553 503.903901,0.995527553 502.113802,1.26726321 C501.933871,0.846566636 501.730861,0.436120178 501.505698,0.037795968 C501.489893,0.0108790563 501.459228,-0.0036250544 501.428394,0.00123338015 C499.76756,0.287583952 498.15103,0.78875858 496.61949,1.49214321 C496.606379,1.49770133 496.595317,1.50719144 496.587829,1.51930399 C493.525049,6.09316319 492.686038,10.5545623 493.097629,14.9607157 C493.099968,14.9825341 493.111059,15.0024698 493.128365,15.0159614 C494.911793,16.3364547 496.90658,17.3443974 499.027598,17.9967766 C499.058189,18.0059531 499.091259,17.9951168 499.110487,17.9696158 C499.566036,17.3497715 499.969686,16.6934112 500.317333,16.0072093 C500.326996,15.9881628 500.328047,15.9658924 500.320223,15.9460202 C500.312398,15.926148 500.296445,15.9105729 500.276391,15.9032269 C499.639864,15.6596774 499.023631,15.3660841 498.433476,15.0252025 C498.411705,15.0124041 498.397746,14.9895963 498.396254,14.9643862 C498.394762,14.9391761 498.405934,14.9148809 498.426043,14.899604 C498.549874,14.8068314 498.673785,14.7103223 498.792031,14.6128488 C498.813459,14.5952003 498.843035,14.5912153 498.86837,14.6025631 C502.734723,16.3670897 506.920577,16.3670897 510.741167,14.6025631 C510.766578,14.5904834 510.796676,14.5941283 510.81847,14.6119247 C510.936756,14.7093982 511.060627,14.8068314 511.185382,14.899604 C511.205599,14.9147242 511.216947,14.9389281 511.215641,14.96414 C511.214334,14.9893519 511.200545,15.0122531 511.178873,15.0252025 C510.59006,15.3689516 509.973268,15.662361 509.335074,15.9023028 C509.31503,15.9099305 509.299186,15.9257398 509.291516,15.9457677 C509.283845,15.9657956 509.285074,15.9881435 509.294895,16.0072093 C509.648363,16.6895951 510.051419,17.3451285 510.500818,17.968531 C510.519523,17.9947564 510.552903,18.0060827 510.583706,17.9966561 C512.708526,17.3464886 514.706798,16.3384522 516.492462,15.0159614 C516.510051,15.0031245 516.521252,14.983328 516.523198,14.9616399 C517.015949,9.8676678 515.69825,5.44283127 513.030306,1.5202281 Z M500.894741,12.2778254 C499.730685,12.2778254 498.77154,11.2095951 498.77154,9.89768126 C498.77154,8.58576739 499.712082,7.51745679 500.894741,7.51745679 C502.086641,7.51745679 503.036505,8.59504867 503.017902,9.8976009 C503.017902,11.2095951 502.07732,12.2778254 500.894741,12.2778254 Z M508.744849,12.2778254 C507.580833,12.2778254 506.621688,11.2095951 506.621688,9.89768126 C506.621688,8.58576739 507.56223,7.51745679 508.744849,7.51745679 C509.93683,7.51745679 510.886653,8.59504867 510.868051,9.8976009 C510.868051,11.2095951 509.93683,12.2778254 508.744849,12.2778254 Z" transform="translate(-493)"/></svg>