<svg xmlns="http://www.w3.org/2000/svg" width="18" height="18" viewBox="0 0 18 18"><path fill="#B5B5B5" d="M485,9.05476673 C485,4.05273834 480.971774,0 476,0 C471.028226,0 467,4.05273834 467,9.05476673 C467,13.5741176 470.291169,17.3201623 474.59375,18 L474.59375,11.6722515 L472.30746,11.6722515 L472.30746,9.05476673 L474.59375,9.05476673 L474.59375,7.05979716 C474.59375,4.7906288 475.936492,3.53720081 477.993065,3.53720081 C478.977984,3.53720081 480.007903,3.71391481 480.007903,3.71391481 L480.007903,5.94109533 L478.872742,5.94109533 C477.755,5.94109533 477.40625,6.63918864 477.40625,7.35517241 L477.40625,9.05476673 L479.902298,9.05476673 L479.503105,11.6722515 L477.40625,11.6722515 L477.40625,18 C481.708831,17.3201623 485,13.5741176 485,9.05476673 Z" transform="translate(-467)"/></svg>