<svg xmlns="http://www.w3.org/2000/svg" width="103" height="103" style="background:#1e1d1d" viewBox="0 0 103 103"><g fill="none" fill-rule="evenodd"><rect width="103" height="103" fill="#1E1D1D"/><g fill="#FFF" fill-rule="nonzero" transform="matrix(1 0 0 -1 30.945 79.763)"><path d="M40.2401284,17.8577481 L37.5950718,17.8577481 C37.1601069,15.53001 36.2549097,13.3668595 34.9735267,11.4858591 L36.8309443,9.6283711 C37.5245369,8.93475218 37.5245369,7.80615191 36.8309443,7.11253299 L34.8912361,5.17275126 C34.1976435,4.47913234 33.0690859,4.47913234 32.3754933,5.17275126 L30.5298316,7.01848297 C28.6489024,5.72529515 26.4858339,4.80830743 24.1464282,4.36156982 L24.1464282,1.77519418 C24.1464282,0.799425195 23.3470333,0 22.3713013,0 L19.6321982,0 C18.6564662,0 17.8570713,0.799425195 17.8570713,1.77519418 L17.8570713,4.37332607 C15.5294214,4.82006368 13.3663529,5.7370514 11.4736679,7.03023922 L9.62800618,5.18450752 C8.93441355,4.4908886 7.80585605,4.4908886 7.11226342,5.18450752 L5.17255521,7.12428924 C4.47896258,7.81790816 4.47896258,8.94650844 5.17255521,9.64012736 L7.02997277,11.4976153 C5.74858977,13.3786158 4.84339261,15.5417663 4.40842774,17.8695044 L1.7751269,17.8695044 C0.799394897,17.8695044 0,18.6689296 0,19.6446986 L0,22.3839055 C0,23.3596745 0.799394897,24.1590997 1.7751269,24.1590997 L4.44369516,24.1590997 C4.89041584,26.4750815 5.80736881,28.6147195 7.0887518,30.4839637 L5.18431102,32.3884767 C4.49071839,33.0820956 4.49071839,34.2106959 5.18431102,34.9043148 L7.12401923,36.8440965 C7.81761186,37.5377154 8.94616936,37.5377154 9.63976199,36.8440965 L11.5559586,34.9278273 C12.2142838,35.3745649 12.8961206,35.7742775 13.6132249,36.1269651 L13.6132249,29.8256135 C11.0622147,27.709488 9.45166907,24.5117872 9.45166907,20.9378864 C9.45166907,14.5542411 14.6242243,9.36973354 21.0193835,9.36973354 C27.4027868,9.36973354 32.5870978,14.5424848 32.5870978,20.9378864 C32.5870978,24.5117872 30.9647964,27.709488 28.4255421,29.8256135 L28.4255421,36.1269651 C29.1426463,35.7742775 29.8362389,35.3745649 30.4828083,34.9278273 L32.3990049,36.8440965 C33.0925976,37.5377154 34.2211551,37.5377154 34.9147477,36.8440965 L36.8544559,34.9043148 C37.5480485,34.2106959 37.5480485,33.0820956 36.8544559,32.3884767 L34.9500151,30.4839637 C36.2313981,28.6147195 37.1483511,26.4750815 37.5950718,24.1590997 L40.26364,24.1590997 C41.239372,24.1590997 42.0387669,23.3596745 42.0387669,22.3839055 L42.0387669,19.6329423 C42.0152553,18.6571733 41.2158604,17.8577481 40.2401284,17.8577481 Z"/><path d="M25.5806367,14.6718036 C25.2749857,14.4484348 24.8517766,14.6600473 24.8517766,15.0362474 L24.8517766,18.3397545 C24.8517766,19.9033361 23.5821495,21.1730114 22.0186271,21.1730114 L19.9966282,21.1730114 C18.4331059,21.1730114 17.1634787,19.9033361 17.1634787,18.3397545 L17.1634787,15.0362474 C17.1634787,14.6600473 16.7402696,14.4484348 16.4346186,14.6718036 C14.5419336,16.0707977 13.3075739,18.3279982 13.3075739,20.8673488 C13.3075739,23.3596745 14.4949104,25.56985 16.3288163,26.9806003 C17.1399671,27.6036817 17.6101993,28.5559382 17.6101993,29.5787322 L17.6101993,54.2198383 C17.6101993,56.0890825 19.1384543,57.6056391 21.0076277,57.6056391 C22.8885568,57.6056391 24.405056,56.0890825 24.405056,54.2198383 L24.405056,29.566976 C24.405056,28.544182 24.8752883,27.5919255 25.686439,26.9688441 C27.5203449,25.5580937 28.7076814,23.3479182 28.7076814,20.8555926 C28.7076814,18.3279982 27.4850775,16.0707977 25.5806367,14.6718036 Z M21.9951155,53.7848569 C21.9951155,54.3256445 21.5483948,54.7723821 21.0076277,54.7723821 C20.4668605,54.7723821 20.0201398,54.3256445 20.0201398,53.7848569 L20.0201398,28.638232 C20.0201398,28.0974444 20.4668605,27.6507068 21.0076277,27.6507068 C21.5483948,27.6507068 21.9951155,28.0974444 21.9951155,28.638232 L21.9951155,53.7848569 Z"/></g><ellipse cx="51.964" cy="50.96" stroke="#FFF" stroke-width="3.14" rx="33.592" ry="33.505"/><ellipse cx="51.964" cy="50.96" rx="44.129" ry="44.157" transform="rotate(-128 51.964 50.96)"/><ellipse cx="51.964" cy="50.96" rx="44.129" ry="44.157" transform="rotate(-128 51.964 50.96)"/><text fill="#FFF" font-family="Atures700PERSONALUSEONLY, Atures 700 PERSONAL USE ONLY" font-size="9.029" font-weight="bold" letter-spacing="1.884" transform="rotate(5 134.378 101.649)">
            <tspan x="35.085" y="103.203">FEDERATION OF DROID BUILDERS</tspan>
        </text></g></svg>