<svg xmlns="http://www.w3.org/2000/svg" width="37" height="56" viewBox="0 0 37 56"><defs><filter id="a" width="107.5%" height="109.3%" x="-3.7%" y="-4.6%" filterUnits="objectBoundingBox"><feGaussianBlur in="SourceGraphic" stdDeviation=".199"/></filter><filter id="b" width="108.4%" height="110.9%" x="-4.2%" y="-5.4%" filterUnits="objectBoundingBox"><feGaussianBlur in="SourceGraphic" stdDeviation=".199"/></filter></defs><g fill="none" fill-rule="evenodd"><path fill="#FFF" d="M26.8115328,4.80321279 C28.9241295,6.05286777 30.5673402,7.63535521 31.7411648,9.5506751 C32.5518344,9.04369762 33.1771854,8.68098354 33.6172178,8.46253286 C34.0572503,8.24408217 34.6035716,8.02512867 35.2561817,7.80567234 C35.0749127,8.61583667 34.9017504,9.19750426 34.736695,9.5506751 C34.5991487,9.84498413 34.385919,10.1546015 34.0970057,10.4795274 L33.9145758,10.6763198 L34.5035049,10.6763198 C34.4785067,10.9910863 34.4313412,11.2287543 34.3620085,11.3893238 C34.2926757,11.5498932 34.1435315,11.7668639 33.9145758,12.0402356 C34.3764475,12.6746615 34.3764475,13.2431322 33.9145758,13.7456479 C33.5723608,14.1179772 32.9996669,14.3855995 32.1964942,14.5485147 C32.1964942,24.1627613 31.8533411,33.9690635 31.167035,43.9674213 C31.167035,44.7554566 31.0096774,45.4165386 30.6949622,45.9506674 C29.164729,48.4611368 27.7003847,50.3479155 26.3019293,51.6110035 C24.2042463,53.5056354 20.6863731,55.8229276 16.8552095,54.8299267 C13.7995853,54.0379382 11.9541432,52.1535387 11.61085,48.5766736 C11.5483618,47.9255926 11.3782681,47.3707323 11.4071223,46.8721339 C11.61085,43.3517366 12.401145,40.182241 17.2865051,39.4920575 C22.1718652,38.8018741 24.1755193,42.3643738 24.8137395,43.3517366 C25.1746354,43.910063 25.4233952,44.7191585 25.560019,45.7790229 C25.9450565,45.482779 26.2468592,44.8784125 26.4654954,43.9686184 C26.8153074,42.5129728 27.2136468,41.5221818 27.6605136,40.9962453 L27.6178248,41.0486603 C27.5104922,40.5241928 27.3800082,40.0951554 27.2448965,39.8555395 C22.872941,39.2846216 15.7864458,36.3398611 12.2455916,33.5870399 C12.0794927,34.4531232 11.94411,35.0755445 11.8391763,35.4553146 C11.7310902,35.8464942 11.5734558,36.2764665 11.3662732,36.7452316 C11.3663274,37.9772747 11.6808095,38.5932962 12.3097194,38.5932962 C12.9386292,38.5932962 13.3587287,38.5463613 13.5700178,38.4524913 C13.4721819,39.1598101 13.0067222,39.5134695 12.1736386,39.5134695 C11.340555,39.5134695 10.8222013,38.9808168 10.6185773,37.9155115 C10.3936152,39.3095305 10.4689576,40.1704709 10.8446045,40.4983325 C11.408075,40.9901251 11.7780139,40.9142181 11.8391763,41.2386392 C11.6522127,41.3621754 11.0073184,41.4108756 10.4452121,41.1258138 C9.88310573,40.8407519 9.67689707,39.9421284 9.67689707,39.0387863 C9.67689707,38.4365582 9.82165767,37.7525652 10.1111789,36.9868074 C9.86382653,37.0139346 9.60797817,37.3059297 9.34363379,37.8627929 C9.10914693,38.3567586 9.05650908,38.9727584 8.86739074,39.5862245 C8.74131185,39.9952019 8.55333098,40.2992379 8.30344813,40.4983325 C8.13601761,40.2050484 8.13601761,39.5700363 8.30344813,38.5932962 C8.4347458,37.8273445 9.33520616,36.358611 9.80008115,36.039214 C10.1099978,35.8262826 10.4679529,35.718402 10.8739465,35.7155722 C11.0310284,35.4972818 11.1259073,35.1771632 11.1585833,34.7552164 C11.1912594,34.3332695 11.3977362,33.7874283 11.7780139,33.1176929 L11.7438906,33.1783345 L11.672672,33.1186658 C10.6978861,32.2873392 9.88306585,31.4300042 9.20940965,30.6165479 C8.78793686,31.363028 8.480997,31.9136868 8.28834595,32.2706712 C8.08675257,32.6442258 7.82945992,33.1513683 7.51646801,33.7920988 C7.42604724,34.3294904 7.40597676,34.6783528 7.45625658,34.8386861 C7.65114578,35.4601528 8.07686333,35.6822522 8.28834595,35.7437508 C8.58166975,35.8290486 8.90840815,35.7787035 9.26856116,35.5927156 C9.36149087,36.198262 9.05521512,36.5551929 8.34973392,36.6635084 C7.68501101,36.7655661 6.99860744,36.0436765 6.66221247,35.2957534 C6.3893502,36.3440756 6.43930105,37.143675 6.79946481,37.4844676 C7.15962857,37.8252602 7.52241435,37.9151218 7.79508195,37.9598368 C7.88067583,38.0389051 7.71755677,38.291376 7.05345349,38.291376 C6.3893502,38.291376 5.51365888,37.8670506 5.69530596,36.1634704 C5.87695304,34.4598902 6.51231407,33.8720123 6.3893502,33.7204445 C5.73734092,33.5584637 5.10692452,35.3070063 4.83841315,35.7437508 C4.44720934,36.3800594 4.36987784,37.1481285 4.27644347,37.3323426 C3.96780251,37.3323426 3.76962701,36.4781463 4.14132797,35.2957534 C4.37883202,34.5402454 5.32532933,32.7896226 6.20784778,32.7896226 C6.49124877,32.7896226 6.73415785,32.8558114 6.93657502,32.9881889 C7.24549403,32.4077296 7.50543919,31.9305351 7.7164105,31.5566053 C7.92738181,31.1826755 8.26521129,30.6316026 8.72989894,29.9033866 L8.69038217,29.9635493 C7.46713505,28.3595853 6.8127505,27.0186245 6.56646994,26.5382184 C5.67884498,24.8067768 5.15697575,21.6008427 5.00086223,16.9204162 C4.50547232,16.8549365 4.15328372,16.772935 3.94429643,16.6744117 C3.73530915,16.5758884 3.47425757,16.3687889 3.16114171,16.053113 C2.74897429,15.5761658 2.54289058,15.2141645 2.54289058,14.9671091 C2.60193501,14.8113383 2.72204805,14.719157 2.90322971,14.6905655 C2.75551273,14.1361792 2.71065062,13.6808806 2.76864338,13.3246695 C2.79662129,13.1528197 2.92745406,13.0548605 3.16114171,13.0307917 C2.89590257,12.6200468 2.73659129,12.2898615 2.68320788,12.0402356 C2.62982446,11.7906097 2.65830296,11.5342057 2.76864338,11.2710236 C3.14368215,11.1531605 3.5659112,11.1708792 4.03533052,11.3241797 C4.50474983,11.4774801 4.89051552,11.7522474 5.19262759,12.1484816 C6.32667852,9.69118243 7.71707568,7.72865327 9.36381906,6.26089411 C12.2889048,3.65373539 15.6386914,2.76233454 18.7259278,2.76233454 C21.0980292,2.76233454 23.6426378,2.92873031 26.8115328,4.80321279 Z M28.1459519,40.0641622 C28.6173209,40.9001188 28.6596776,44.2807968 28.3125744,45.7493723 C27.9831564,47.1431225 27.1008573,48.3277954 25.665677,49.303391 C24.9066875,50.8417559 23.5042159,51.6451298 21.4582621,51.7135127 C18.3893314,51.816087 15.8311298,51.5852674 15.2639832,48.4301146 C15.1567932,47.8337949 14.6058807,43.1374519 18.6647486,43.0111915 C19.6934186,42.9791924 20.3237902,43.7607063 20.6459068,43.842446 C21.1307372,43.9654756 23.0890046,44.4628686 23.0890046,46.7400634 C23.0890046,48.076427 22.0631015,49.0758186 21.1307372,48.9110366 C20.2584045,48.7568643 19.8736146,48.2377506 19.9763673,47.3536955 C20.2122051,47.7688315 20.6372967,47.9763994 21.2516421,47.9763994 C22.1731604,47.9763994 22.3125005,46.9329098 22.3125005,46.3437169 C22.3125005,45.7493723 21.846856,45.1256971 21.0028131,44.9195207 C20.1587702,44.7133444 18.0991559,45.3162298 17.7075511,47.3536955 C17.5441214,48.2039975 17.0612694,50.5908445 21.2516421,50.8653223 C24.8411638,51.1004432 24.9927801,47.7076598 24.9927801,47.7074233 C24.9927801,46.3131462 24.6344182,44.6551364 24.1886292,43.9654756 C23.5504091,42.9781128 21.7355506,40.0641622 18.0393806,40.2384137 C11.3637905,40.5531264 12.2376876,47.5889312 12.2822174,48.4301146 C12.4175393,50.9863892 14.4188603,53.7793781 17.5441214,54.2326768 C20.6693826,54.6859754 23.7274537,53.0415896 25.8251368,51.1469577 C27.2235921,49.8838697 28.7156353,48.0846746 30.3012662,45.7493723 C30.4626818,43.0274557 30.5939138,41.2476386 30.6949622,40.4099209 C29.6674309,40.4099209 29.041013,40.271237 28.1459519,40.0641622 Z M27.7856855,42.1061877 C27.5356653,42.791717 27.2520578,45.0518511 26.4654954,46.0909223 C26.0513935,46.6379628 25.7843335,46.9630748 25.6643154,47.0662583 C25.6881417,47.585288 25.6908247,48.1498792 25.6739248,48.7582637 C26.705704,47.5384285 27.3822177,46.3819438 27.7034659,45.2888098 C27.9330193,44.5076923 27.9199302,43.2413393 27.7856855,42.1061877 Z M18.8574142,3.62361445 C15.7701778,3.62361445 12.3851816,4.57868853 9.89043207,6.82010827 C7.42617491,9.034132 6.09855317,11.7141559 5.39975082,13.0307917 C5.20583128,15.9025613 5.86383285,23.6712156 7.03502142,26.411469 C7.45495756,27.394002 9.4077202,30.473201 13.0068833,33.0600774 C16.6060463,35.6469539 26.9542045,39.5781152 30.6864448,39.5781152 C31.2324729,29.5510114 31.505487,21.7660066 31.505487,16.223101 L31.167035,10.02744 C29.9272046,8.18540854 28.361952,6.69564404 26.4712772,5.55814647 C23.6352651,3.85190012 21.2295156,3.62361445 18.8574142,3.62361445 Z M12.1401086,9.72872305 C12.7904448,9.72872305 13.2216237,9.81079073 13.4336453,9.97492607 L13.4962022,10.0326774 L16.6818066,13.3995508 C17.2247888,12.8807143 17.5882656,12.4448948 17.772237,12.0920921 C18.1559474,12.5841423 20.4794281,13.4712758 20.4794281,14.7046347 C20.4794281,15.4785069 19.9500437,16.4254792 18.8912749,17.5455516 L18.6865521,17.7575937 L18.6865521,18.4764919 C18.3053767,18.4093576 18.0633022,17.9032587 17.4632197,17.4296474 C16.6990396,16.8265231 15.8548131,16.0226085 15.7419764,15.8966526 C15.532105,15.6623802 15.5896783,15.1101162 15.7419764,14.9073755 C15.8435084,14.772215 15.9903192,14.5071462 16.1824087,14.1121692 C14.3219733,12.0723519 13.2977035,10.9979323 13.1095993,10.8889104 C12.827443,10.7253774 12.4687673,10.6825322 12.2392979,10.6825322 C12.0098286,10.6825322 11.2054431,10.6825322 10.8509231,10.8889104 C11.1425851,10.927497 10.9581661,10.945398 11.0960138,10.9422034 C11.7305861,10.927497 11.6117681,11.5530585 11.0960138,11.5530585 C10.5802595,11.5530585 10.2429189,11.7491299 9.91401436,11.8073049 C9.58510984,11.86548 8.74571611,12.1120506 8.74571611,12.5755297 C8.74571611,13.0390088 9.49213649,13.4234768 9.6518488,13.5146969 C9.81156111,13.605917 10.5414276,13.6779627 11.0960138,13.6779627 C11.6505999,13.6779627 13.1095993,13.5652646 13.1095993,12.9854339 C13.1095993,12.6820966 12.9456849,12.6820966 12.4855128,12.1544878 C11.8583997,11.4354733 11.8122278,11.2313957 11.8100436,11.1933292 C11.8102432,11.1861294 11.8116836,11.1859087 11.814596,11.1856482 L11.8499862,11.1850571 C11.9481764,11.1884095 12.2321056,11.2307633 12.7437465,11.5530585 C13.3949258,11.9632522 13.9278718,12.391304 13.8837231,13.0656093 C13.8395745,13.7399147 13.4921987,13.9399806 13.1521926,14.1945542 C12.6737875,14.5527516 11.5203326,14.6032161 10.8741106,14.607133 L10.6161759,14.6065868 C10.5450733,14.605937 10.4902812,14.6051366 10.4561048,14.6051366 L10.3454865,14.6053129 C10.0826522,14.6053866 9.78112116,14.5978573 9.32285541,14.4726694 C8.79912313,14.3295975 8.20179533,13.3995508 8.20179533,13.3995508 C8.20179533,13.3995508 8.01953612,13.010909 7.97060764,12.7408819 C7.93798866,12.5608639 7.96280904,12.3242591 8.04506879,12.0310676 C7.68807736,12.1133477 7.4417977,12.197369 7.3062298,12.2831313 C7.17066189,12.3688936 7.06916493,12.6029945 7.00173891,12.9854339 C7.00173891,14.6309817 7.12851684,15.601388 7.3820727,15.8966526 C7.57552115,16.1219224 8.18843991,16.7799223 8.93131907,17.1292929 C9.91401436,17.5914472 11.0960138,18.033188 12.7437465,18.033188 C14.3914792,18.033188 15.5387646,17.9607184 15.9053397,17.8497938 C16.7958804,17.5803188 16.8955674,18.3995309 16.1824087,18.5525008 C14.9569574,18.8153554 13.2506816,18.8153554 12.4855128,18.8945213 C11.6908496,18.9767387 11.3305516,19.334319 10.744296,19.2682696 C7.85734698,18.9430164 6.70848834,16.9255829 6.5459369,16.4697827 C6.3684016,15.9719672 6.40305151,14.9269242 6.6498866,13.3346534 C6.31754353,13.5635263 6.05000176,13.8973727 5.84726128,14.3361928 C5.70544234,13.3995508 6.18223564,12.9627047 6.70848834,12.0920921 C7.63303003,10.5625652 11.0562148,9.72872305 12.1401086,9.72872305 Z M25.8428702,7.90974317 C27.7870894,7.90974317 30.0517869,8.96417191 30.5684301,11.9547946 C30.8226177,13.4261762 30.6548734,14.3835053 30.0651973,14.8267818 L27.7870894,16.9262193 C27.401745,17.2902155 27.0491579,17.5229371 26.7293282,17.6243839 C26.2495837,17.7765543 24.7965193,17.6243839 24.3351475,17.6243839 C23.8737758,17.6243839 20.5117911,18.2080544 19.7985741,18.2080544 C19.0853571,18.2080544 19.2003733,17.5971251 19.6791497,17.5257316 C20.1579261,17.454338 22.0067631,17.2972493 24.1198076,16.7395007 C24.3648219,16.674828 25.5464452,16.5451165 26.3478315,16.1958749 C27.0421947,15.8932736 27.334535,15.3831849 27.8599761,14.9850781 C28.0151206,14.867531 28.342614,14.7951637 28.5957447,14.7015726 C28.8652994,14.601909 29.0750242,14.3224706 29.0885494,14.1849777 C29.174272,13.3135485 29.8351783,13.4423654 29.8351783,13.0588988 C29.8351783,11.4091307 29.5399233,9.31165275 26.3478315,8.80828523 C24.9647792,8.59018886 23.3074577,9.16200818 22.6221631,10.0234069 C21.9368685,10.8848056 21.0597252,12.1977293 20.7286005,12.7351875 C20.3974759,13.2726457 19.7985741,13.0588988 20.1579261,12.3799751 C20.5172781,11.7010514 21.9269454,9.57393238 22.5209872,9.06024355 C23.115029,8.54655473 23.898651,7.90974317 25.8428702,7.90974317 Z M18.08251,13.5223335 C18.2386497,14.1686571 18.3397237,14.5564985 18.3857319,14.6858578 C18.4317401,14.8152171 18.477987,15.703392 18.5244727,17.3503825 C19.1623195,16.7957616 19.4812429,16.0361013 19.4812429,15.0714016 C19.4812429,14.1067018 19.0149986,13.5903458 18.08251,13.5223335 Z M3.38153538,15.1147719 C3.18279052,15.8106707 4.6273151,16.6785333 4.93998206,16.6785333 L4.93998206,15.7847572 C4.62892431,15.6325684 4.41476858,15.5464517 4.29751485,15.5264069 C4.01021885,15.4772931 3.45570731,15.1147719 3.38153538,15.1147719 Z M17.6404569,13.880442 C16.8559672,14.249175 16.4637223,14.6901529 16.4637223,15.2033759 C16.4637223,15.6771202 16.7979428,16.0893066 17.4663838,16.4399351 L17.6404569,16.5263097 L17.6404569,13.880442 Z M3.5808757,13.4115837 C3.35236088,13.4115837 3.35236088,13.8755 3.42299256,14.0803464 C3.53912336,14.4171496 3.88803452,14.6860718 3.98503485,14.7714239 C4.22583012,14.9833033 4.61698561,15.260802 4.88156301,15.260802 L4.88156301,14.3361928 C4.57379559,14.2851142 4.33885291,14.1979967 4.17673499,14.0748401 C4.06776866,13.9920614 3.96409927,13.891204 3.87063297,13.7867591 C3.75551334,13.6581175 3.65504763,13.4115837 3.5808757,13.4115837 Z M33.4364129,12.5976737 C33.1722569,12.7939289 32.9894368,12.9162488 32.8879525,12.9646333 C32.8009661,13.0061058 32.6208199,13.0714441 32.3475141,13.1606482 L32.2030979,13.2072391 L32.2030979,14.1006571 C32.4096814,14.1072869 32.6782844,13.9981494 33.0089068,13.7732447 C33.5048405,13.4358877 33.6560825,13.0478889 33.4364129,12.5976737 Z M24.7888916,9.46176522 C25.1016206,9.4258726 25.5280544,9.33994261 26.0277223,9.59619791 C26.5273901,9.85245322 28.2672156,10.6905583 28.3917343,10.8846848 C28.3294997,11.1002901 27.2274807,12.9914416 26.4803814,13.106383 C26.1081052,13.1636577 25.8647049,13.5510318 25.6111138,13.6487814 C25.3575228,13.7465309 24.8990691,13.5762861 24.7461904,13.5762861 C24.5933117,13.5762861 24.4567433,13.8936405 23.6647412,13.8434018 C22.8727392,13.793163 22.6028018,13.164786 22.6493128,12.4255107 C22.6958239,11.6862355 22.9145487,11.311326 23.2097919,10.9284359 C23.3732542,10.7164476 23.7952719,10.4907542 24.4758448,10.2513557 C24.2657178,10.6697742 24.0539929,10.9254364 23.8406702,11.0183423 C23.5206862,11.1577013 23.2656321,12.1499381 23.2656321,12.361411 C23.2656321,12.572884 23.3782856,12.8868008 23.6647412,12.9914416 C23.9511969,13.0960825 24.506228,12.9622719 24.8384041,12.818923 C25.1705803,12.6755741 25.6111138,12.9914416 26.0277223,12.5469103 C26.5463612,11.99351 27.2592375,11.2634389 27.4292532,11.1147023 C26.9030232,10.928477 25.7830402,10.268412 25.661934,10.1663601 C25.5408279,10.0643082 25.1522464,10.0483968 24.7888916,10.0000903 C24.4255368,9.95178374 24.4761626,9.49765784 24.7888916,9.46176522 Z M3.66383984,12.2112915 C3.58371231,12.3385029 4.07311846,12.7595256 4.24493794,12.9087381 C4.41675743,13.0579506 4.62101388,13.3346534 4.93998206,13.3346534 L4.93998206,12.9087381 C4.89337321,12.7336734 4.76588031,12.5682625 4.55750336,12.4125055 C4.24493794,12.1788699 3.74396738,12.08408 3.66383984,12.2112915 Z M33.2129766,11.4082182 C32.9910135,11.5452061 32.8192507,11.6378701 32.6976883,11.68621 C32.6004383,11.724882 32.465145,11.7630899 32.2918083,11.8008338 L32.1546726,11.8290547 L32.1991524,12.291578 C32.404337,12.2731247 32.6214543,12.1881559 32.8505045,12.0366714 C33.0795546,11.885187 33.2003787,11.6757026 33.2129766,11.4082182 Z M34.2185127,9.13263465 C33.6628194,9.28402765 33.2488079,9.42168074 32.9764782,9.54559392 C32.7495368,9.64885491 32.475513,9.808766 32.1544067,10.0253272 L31.956093,10.1620619 L31.956093,10.9391071 C32.428712,10.8744335 32.8549001,10.7077257 33.2346572,10.4389838 C33.6144143,10.1702418 33.9423661,9.73479213 34.2185127,9.13263465 Z"/><path stroke="#FFF" stroke-linecap="round" stroke-width=".596" d="M7.8311721,17.8345325 C6.94846558,19.1919137 9.71515342,25.2767381 11.3780632,27.0685354 C13.0409729,28.8603327 15.1548077,30.7654275 18.8995361,33.1176929 C22.6442646,35.4699584 28.8896581,37.0157691 30.0504198,37.0600102 C30.3525316,37.0715249 30.6902834,37.0715249 31.063675,37.0600102" filter="url(#a)"/><path stroke="#FFF" stroke-linecap="round" stroke-width=".596" d="M9.68223833,18.9588719 C9.68223833,19.7502447 11.1052243,23.6880856 12.7681341,25.4798829 C14.4310439,27.2716802 17.6404569,29.9033866 20.4794281,31.8790915 C23.3183992,33.8547965 29.7052655,35.1354497 30.9827547,35.3950527" filter="url(#b)"/></g></svg>