<svg xmlns="http://www.w3.org/2000/svg" width="26" height="18" viewBox="0 0 26 18"><path fill="#B5B5B5" d="M550.065094,2.81639063 C549.770672,1.70779688 548.903203,0.834703125 547.801781,0.53840625 C545.805375,0 537.800016,0 537.800016,0 C537.800016,0 529.794703,0 527.79825,0.53840625 C526.696828,0.83475 525.829359,1.70779688 525.534937,2.81639063 C525,4.82578125 525,9.0181875 525,9.0181875 C525,9.0181875 525,13.2105938 525.534937,15.2199844 C525.829359,16.3285781 526.696828,17.1652969 527.79825,17.4615938 C529.794703,18 537.800016,18 537.800016,18 C537.800016,18 545.805328,18 547.801781,17.4615938 C548.903203,17.1652969 549.770672,16.3285781 550.065094,15.2199844 C550.600031,13.2105938 550.600031,9.0181875 550.600031,9.0181875 C550.600031,9.0181875 550.600031,4.82578125 550.065094,2.81639063 Z M535.181812,12.8245781 L535.181812,5.21179688 L541.872703,9.01828125 L535.181812,12.8245781 Z" transform="translate(-525)"/></svg>